<?xml version="1.0" standalone="no"?>
<!DOCTYPE svg PUBLIC "-//W3C//DTD SVG 20010904//EN"
 "http://www.w3.org/TR/2001/REC-SVG-20010904/DTD/svg10.dtd">
<svg version="1.0" xmlns="http://www.w3.org/2000/svg"
 width="960.000000pt" height="960.000000pt" viewBox="0 0 960.000000 960.000000"
 preserveAspectRatio="xMidYMid meet">

<g transform="translate(0.000000,960.000000) scale(0.100000,-0.100000)"
fill="#000000" stroke="none">
<path d="M7463 8881 c-23 -11 -167 -102 -320 -204 -153 -101 -433 -280 -623
-397 -605 -374 -726 -460 -878 -626 -131 -143 -269 -360 -318 -501 l-12 -31
-66 24 c-87 31 -266 77 -391 100 -79 15 -149 19 -335 18 -254 0 -346 -11 -517
-60 l-91 -26 -94 94 c-111 112 -185 164 -423 293 -227 124 -405 232 -569 348
-257 180 -348 262 -581 522 -157 175 -213 226 -277 255 -101 46 -157 9 -206
-135 -43 -127 -83 -318 -114 -545 -17 -125 -17 -509 0 -620 86 -564 215 -944
454 -1341 188 -311 372 -520 528 -599 25 -12 46 -23 47 -24 1 -1 -11 -51 -26
-112 -33 -124 -78 -255 -146 -427 -73 -187 -72 -299 4 -462 115 -244 350 -420
740 -556 l94 -32 -79 -40 c-135 -68 -226 -187 -273 -357 -37 -133 -24 -319 30
-435 l21 -46 -36 -87 c-73 -175 -99 -356 -85 -579 27 -409 195 -726 509 -962
l85 -63 0 -92 c0 -79 4 -98 27 -141 31 -61 98 -125 165 -158 130 -66 371 -63
458 5 l28 22 21 -30 c63 -89 147 -134 249 -134 85 0 145 26 194 86 l36 43 32
-42 c46 -60 122 -99 205 -105 122 -8 203 31 268 131 14 23 27 44 29 46 1 2 23
-11 50 -28 124 -82 277 -81 458 3 135 63 215 137 313 291 74 115 79 122 117
151 33 25 43 27 203 35 224 12 323 25 477 64 425 109 752 297 998 573 292 329
515 903 587 1512 39 331 37 496 -11 718 -41 191 -86 316 -221 616 -90 199
-128 315 -128 388 0 43 -14 78 -32 78 -6 0 -48 -35 -92 -78 -91 -88 -184 -146
-313 -196 -167 -65 -328 -98 -678 -141 -286 -36 -323 -45 -412 -106 -23 -16
-44 -29 -47 -29 -2 0 -12 26 -21 58 -9 31 -33 95 -52 142 -61 146 -83 222 -94
319 l-10 94 33 26 c157 121 415 397 586 623 228 305 484 753 571 1001 68 194
73 236 81 737 7 427 9 464 34 608 56 325 15 543 -102 542 -9 0 -36 -9 -59 -19z
m99 -121 c19 -75 23 -193 8 -271 -48 -244 -52 -299 -60 -729 -6 -331 -12 -444
-25 -510 -17 -90 -56 -232 -61 -227 -2 2 -8 43 -14 93 -16 149 -74 290 -135
330 -40 26 -91 20 -136 -16 -27 -22 -41 -27 -44 -18 -2 7 -16 47 -31 88 -15
41 -38 94 -52 118 l-25 43 25 27 c122 131 251 436 193 458 -23 9 -42 -12 -50
-54 -16 -89 -139 -300 -208 -358 -42 -35 -141 -84 -171 -84 -18 0 -30 9 -41
30 -20 38 -47 44 -134 31 -38 -6 -100 -11 -137 -11 -58 0 -66 2 -61 18 33 116
33 113 9 132 -20 17 -37 18 -186 13 -89 -3 -175 -3 -191 1 l-28 7 36 25 c57
39 327 208 482 302 242 147 625 392 757 485 145 101 226 148 248 144 9 -1 21
-27 32 -67z m-5596 -136 c58 -39 113 -94 247 -249 167 -193 254 -276 409 -395
132 -102 319 -231 411 -285 26 -15 46 -29 44 -31 -2 -2 -39 8 -83 22 -43 14
-104 27 -134 27 -50 2 -55 0 -58 -20 -2 -13 8 -37 21 -55 13 -18 30 -49 36
-68 16 -48 -3 -60 -91 -60 -109 0 -211 26 -340 87 -167 78 -178 71 -178 -120
l-1 -112 -40 45 c-118 134 -199 298 -244 495 -22 101 -42 132 -67 107 -28 -28
42 -293 116 -440 19 -38 68 -112 110 -165 l74 -95 -51 -22 c-44 -19 -63 -22
-129 -17 -94 8 -104 0 -138 -101 -24 -70 -49 -124 -73 -156 -13 -18 -16 -15
-31 51 -66 292 -93 570 -76 791 14 191 52 438 90 579 54 208 89 245 176 187z
m4222 -834 c137 0 153 -2 148 -16 -40 -104 0 -148 134 -147 41 1 103 6 138 12
l62 12 26 -31 c17 -20 38 -32 64 -36 l37 -6 -106 -97 c-58 -53 -162 -146 -231
-206 -215 -190 -279 -260 -295 -326 -11 -43 31 -81 119 -109 42 -13 76 -29 76
-35 0 -17 -59 -74 -124 -117 -114 -78 -119 -96 -46 -169 93 -93 77 -168 -47
-232 -18 -10 -34 -17 -37 -17 -2 0 -49 57 -103 128 -121 158 -180 222 -205
222 -37 0 -30 -29 22 -88 178 -202 338 -473 386 -652 26 -101 43 -289 44 -495
0 -100 6 -161 26 -252 l6 -32 -89 6 c-300 19 -574 -155 -686 -437 -55 -139
-62 -182 -61 -380 0 -157 3 -198 22 -274 12 -49 21 -91 18 -93 -2 -2 -64 -11
-137 -20 -120 -14 -471 -20 -629 -11 -42 3 -45 1 -48 -24 -5 -39 18 -47 165
-57 255 -18 605 13 863 75 l106 26 79 -27 c199 -66 380 -255 441 -460 26 -86
24 -252 -5 -370 -42 -174 -119 -292 -251 -385 -35 -24 -61 -39 -58 -34 88 184
108 254 115 426 6 138 -5 226 -38 290 -13 25 -26 38 -40 38 -29 0 -32 -21 -15
-81 23 -76 21 -278 -3 -396 -45 -215 -217 -446 -465 -622 -92 -65 -314 -201
-329 -201 -5 0 18 29 51 65 167 182 280 433 285 630 2 79 2 80 -23 80 -24 0
-26 -5 -41 -97 -52 -304 -206 -539 -548 -837 -125 -110 -212 -198 -251 -257
l-15 -23 -25 20 c-52 42 -170 119 -310 203 -277 168 -326 218 -430 440 -77
165 -90 218 -90 357 0 99 -3 121 -16 126 -29 11 -35 -14 -36 -148 -1 -126 1
-140 31 -229 18 -52 56 -143 85 -202 29 -60 51 -108 49 -108 -20 0 -241 111
-321 161 -380 236 -533 498 -478 816 21 125 45 182 125 309 38 59 67 114 64
121 -28 74 -207 -194 -252 -377 l-18 -75 -12 40 c-7 22 -14 81 -17 130 -14
222 85 419 255 509 129 67 139 69 266 46 234 -43 489 -42 687 0 110 24 128 32
128 60 0 41 -23 43 -152 19 -159 -31 -457 -33 -608 -6 -149 28 -310 68 -310
78 0 4 8 30 19 56 70 179 77 461 17 635 -60 172 -196 311 -356 364 -69 22
-240 23 -317 2 -29 -8 -53 -14 -53 -14 0 1 20 58 44 126 64 181 82 267 115
530 33 260 60 369 121 490 52 103 124 224 161 271 37 47 39 79 5 79 -20 0 -37
-18 -90 -97 -35 -54 -83 -132 -105 -174 -37 -68 -44 -76 -66 -71 -35 6 -75 47
-75 76 0 14 18 60 40 103 23 43 39 87 38 98 -2 14 -32 35 -103 71 -101 52
-185 115 -185 138 0 22 51 39 132 44 90 5 160 -9 242 -49 33 -16 67 -29 77
-29 23 0 33 29 16 49 -8 9 -24 36 -36 60 -56 111 -129 183 -435 431 l-191 155
-3 144 c-1 78 1 141 5 139 4 -1 46 -22 93 -45 98 -49 172 -70 280 -79 102 -9
163 1 200 32 35 30 40 72 15 130 -14 33 -14 36 2 30 53 -21 279 -86 348 -101
82 -18 229 -91 360 -179 56 -37 225 -191 225 -205 0 -3 -20 -17 -45 -30 -48
-25 -64 -53 -45 -76 18 -22 40 -18 101 14 72 39 181 74 304 97 81 15 147 19
350 19 221 0 263 -3 363 -23 186 -37 341 -81 423 -118 88 -41 113 -41 117 -1
3 21 -2 29 -22 39 -14 6 -26 19 -26 29 0 31 107 232 172 324 67 94 248 286
335 352 l52 40 52 -13 c34 -9 109 -14 207 -14z m703 -368 c-13 -48 -25 -142
-30 -234 -6 -84 -17 -175 -25 -203 -20 -64 -65 -139 -149 -245 -99 -124 -107
-145 -113 -292 -9 -192 -46 -289 -171 -435 -46 -53 -52 -85 -19 -91 21 -5 53
24 111 99 104 133 145 247 145 402 0 133 10 160 107 283 140 180 171 259 179
454 4 104 31 280 51 340 3 8 17 -19 32 -62 44 -129 78 -146 156 -78 39 34 49
38 66 29 53 -28 104 -178 119 -354 6 -66 13 -127 15 -135 15 -48 -313 -611
-498 -854 -113 -149 -292 -350 -405 -456 -62 -57 -118 -108 -126 -112 -10 -6
-14 19 -19 130 -8 206 -45 354 -127 508 l-48 91 32 11 c42 15 112 76 131 113
20 37 19 112 -1 152 -9 18 -33 49 -53 71 -34 36 -35 39 -17 50 147 89 218 172
197 229 -11 29 -61 58 -131 77 -67 18 -74 26 -48 64 34 47 97 106 320 299 111
97 232 203 268 236 l65 59 3 -33 c2 -18 -6 -69 -17 -113z m-4596 -201 c16 -15
91 -77 165 -136 248 -199 410 -349 410 -378 0 -3 -24 1 -52 10 -33 10 -90 17
-148 17 -79 0 -104 -4 -148 -23 -61 -27 -76 -50 -68 -96 9 -47 98 -125 200
-176 l84 -41 -31 -59 c-21 -41 -32 -79 -35 -120 -4 -58 -3 -60 32 -93 19 -19
49 -37 66 -41 32 -7 36 -15 21 -44 -22 -40 -53 -187 -76 -360 -14 -102 -28
-187 -30 -189 -22 -22 -271 221 -365 356 -193 275 -357 586 -438 835 -71 215
-71 214 -29 273 46 65 83 141 98 199 l12 48 56 -6 c40 -4 71 -1 109 12 28 10
52 15 52 12 -1 -3 -7 -33 -15 -66 -39 -160 2 -372 96 -507 39 -54 51 -110 59
-268 6 -125 13 -169 33 -225 35 -101 68 -161 133 -240 31 -38 77 -96 102 -127
47 -61 61 -68 82 -43 16 19 -3 51 -109 185 -138 172 -168 256 -180 487 -8 167
-1 143 -109 348 -47 89 -65 172 -60 280 4 84 31 205 46 205 3 0 20 -13 37 -29z
m5715 -2084 c0 -48 44 -174 119 -344 171 -385 226 -588 237 -873 7 -156 -27
-478 -71 -686 -47 -225 -115 -449 -115 -381 0 20 -33 39 -53 31 -8 -3 -31 -29
-50 -57 -122 -182 -318 -345 -522 -435 -189 -83 -436 -151 -547 -152 -32 0
-58 2 -58 5 0 2 35 53 77 112 216 303 318 506 402 794 36 125 38 145 12 159
-27 14 -26 14 -70 -26 -96 -86 -287 -177 -444 -210 -64 -13 -297 -20 -297 -9
0 3 20 40 45 83 52 90 74 151 117 320 28 113 29 125 14 140 -14 14 -20 14 -68
-1 -120 -37 -294 -56 -358 -38 -14 4 -41 32 -68 71 -83 123 -215 240 -331 294
l-53 24 84 40 c213 99 371 240 450 398 38 78 42 93 46 177 5 103 13 118 87
161 61 36 139 53 350 76 338 37 446 57 615 111 172 56 337 145 409 223 27 28
41 26 41 -7z m-1749 -108 c50 -11 52 -12 79 -73 42 -92 80 -221 91 -306 16
-134 -27 -240 -151 -373 -78 -83 -145 -131 -281 -197 -122 -60 -336 -131 -399
-134 l-45 -1 -18 70 c-28 107 -34 329 -13 435 37 181 89 289 191 395 140 145
369 222 546 184z m-3322 -100 c147 -33 272 -159 333 -335 34 -98 47 -281 30
-404 -11 -73 -44 -192 -60 -218 -11 -16 -213 67 -319 130 -301 181 -454 444
-387 669 34 115 42 127 94 144 96 32 207 37 309 14z m3761 -1488 c-29 -116
-53 -174 -109 -270 l-48 -83 -62 115 c-41 77 -61 126 -61 149 0 19 -7 57 -15
84 -8 27 -15 52 -15 57 0 4 39 7 88 8 48 0 121 6 162 13 41 6 76 11 78 10 2
-1 -6 -38 -18 -83z m-170 -536 c59 -172 80 -288 80 -442 -1 -396 -141 -765
-378 -997 -42 -40 -58 -49 -93 -52 -23 -1 -45 -6 -49 -11 -5 -4 -19 -35 -33
-69 -13 -33 -40 -84 -59 -113 l-36 -52 -25 43 c-65 112 -272 257 -419 293
l-28 7 28 37 c36 46 38 49 71 211 49 232 93 316 245 465 68 67 112 101 174
133 57 30 82 49 82 62 0 32 -27 30 -107 -9 -109 -54 -190 -116 -273 -213 -100
-117 -150 -221 -190 -395 -41 -180 -42 -181 -107 -244 l-55 -54 7 60 c7 58 49
232 79 327 12 38 12 49 2 64 -32 44 -69 -18 -116 -198 -16 -59 -34 -148 -41
-198 -12 -85 -20 -103 -34 -80 -13 21 -107 61 -162 68 -101 13 -223 -16 -308
-73 -25 -18 -37 -21 -40 -12 -28 76 -33 97 -24 102 5 4 19 25 30 47 49 96 254
280 384 345 337 169 523 291 688 452 87 86 132 122 176 142 128 58 249 163
315 273 38 63 77 174 97 271 l11 60 34 -67 c18 -36 51 -119 74 -183z m810 235
c0 -25 -87 -246 -138 -350 -49 -100 -116 -206 -309 -488 -49 -72 -51 -81 -24
-113 19 -23 25 -24 143 -23 107 1 140 6 259 37 312 82 523 193 705 371 105
103 103 108 42 -84 -55 -174 -82 -231 -165 -341 -255 -340 -670 -582 -1163
-679 -101 -20 -380 -41 -380 -29 0 3 12 16 26 30 93 87 213 296 273 476 57
172 76 297 76 503 0 201 -9 260 -66 427 -16 48 -29 92 -29 98 0 9 15 9 58 3
170 -28 480 41 633 142 48 31 59 35 59 20z m-4201 -485 c128 -256 401 -466
821 -630 53 -21 124 -59 160 -85 36 -26 130 -87 210 -135 264 -160 282 -174
308 -242 12 -32 22 -61 22 -64 0 -3 -30 5 -67 17 -119 41 -294 30 -419 -25
l-42 -19 -36 115 c-74 228 -211 433 -240 357 -3 -9 10 -38 33 -72 51 -75 89
-151 117 -236 34 -99 30 -109 -20 -54 -32 35 -53 73 -81 148 -23 61 -58 130
-88 173 -66 93 -179 203 -259 250 -79 47 -208 97 -256 100 -32 2 -37 -1 -37
-21 0 -19 12 -27 82 -51 125 -43 208 -98 304 -199 95 -100 145 -179 191 -300
21 -56 45 -99 74 -131 24 -27 41 -51 37 -55 -3 -3 -20 -6 -37 -6 -55 0 -149
-54 -230 -130 -42 -40 -76 -70 -76 -66 0 4 9 25 21 47 26 53 22 84 -11 84 -19
0 -30 -10 -48 -43 l-24 -42 -41 30 c-293 213 -448 469 -502 825 -18 117 -19
302 -4 411 9 68 51 222 67 248 3 6 11 -19 19 -55 7 -35 30 -100 52 -144z
m2027 -1213 c21 -11 52 -33 67 -50 l28 -29 -16 -94 c-9 -52 -23 -120 -31 -152
-21 -83 -74 -227 -84 -227 -4 0 -11 24 -14 53 -9 66 -17 80 -47 75 -26 -3 -26
-4 -10 -135 7 -60 7 -62 -18 -72 -14 -5 -42 -12 -62 -15 l-36 -6 -5 91 c-6 95
-21 128 -53 116 -14 -6 -15 -19 -9 -97 6 -74 4 -90 -7 -90 -27 0 -88 51 -114
94 l-25 43 26 99 c25 95 30 163 21 304 -2 34 0 36 74 73 115 58 225 65 315 19z
m351 -3 c108 -43 167 -78 255 -153 83 -71 115 -110 129 -158 8 -29 5 -34 -39
-75 -62 -58 -150 -110 -237 -139 -80 -28 -175 -42 -175 -27 0 14 34 58 84 111
33 35 39 46 30 60 -23 36 -50 26 -103 -38 -28 -34 -58 -74 -66 -91 -18 -34
-24 -35 -75 -9 -29 15 -40 27 -40 43 0 34 44 119 79 151 56 53 28 110 -33 65
-21 -16 -28 -18 -23 -6 3 8 11 53 18 99 12 78 16 87 62 141 27 31 51 57 53 57
2 0 38 -14 81 -31z m-918 -19 c98 -46 104 -54 109 -158 5 -97 -11 -171 -59
-288 -28 -68 -81 -135 -96 -121 -4 4 -9 40 -12 80 -6 69 -7 72 -31 72 -25 0
-25 0 -25 -92 l0 -93 -40 0 c-22 0 -45 4 -51 8 -6 4 -14 36 -18 72 -10 89 -15
108 -33 114 -31 12 -46 -15 -39 -74 l6 -55 -30 35 c-17 19 -39 59 -50 88 -23
60 -68 274 -72 342 l-3 44 60 24 c81 33 135 42 232 38 66 -3 94 -10 152 -36z
m-545 -9 c16 -18 52 -198 41 -209 -3 -3 -14 3 -26 13 -15 15 -24 17 -37 9 -31
-20 -23 -41 37 -93 53 -46 61 -58 72 -106 11 -49 10 -57 -5 -74 -10 -11 -31
-24 -46 -29 -26 -10 -30 -7 -59 38 -37 57 -114 128 -149 137 -27 7 -56 -16
-47 -38 3 -8 20 -23 37 -34 35 -22 114 -112 106 -120 -3 -3 -44 -1 -91 4 -105
12 -188 51 -241 113 -51 59 -63 105 -41 149 23 43 134 155 200 199 84 58 214
79 249 41z"/>
<path d="M5137 5541 c-48 -22 -103 -51 -123 -66 -78 -59 -147 -206 -159 -340
-12 -129 29 -220 120 -261 48 -22 58 -24 99 -13 131 33 207 244 161 449 -31
140 -31 151 4 184 33 31 39 54 19 74 -17 17 -22 16 -121 -27z m-73 -197 c29
-29 10 -94 -27 -94 -25 0 -57 32 -57 55 0 23 32 55 57 55 6 0 19 -7 27 -16z"/>
<path d="M3645 5524 c-19 -20 -14 -41 32 -116 l35 -57 2 -158 c1 -151 2 -160
29 -215 55 -111 174 -140 250 -60 49 51 70 117 70 217 0 186 -77 292 -248 340
-33 9 -77 27 -97 41 -44 28 -51 29 -73 8z m227 -186 c28 -22 31 -55 9 -77 -12
-12 -28 -21 -36 -21 -19 0 -55 36 -55 55 0 18 35 55 53 55 7 0 20 -6 29 -12z"/>
<path d="M4380 4830 c-23 -23 -16 -52 27 -109 23 -30 26 -42 24 -113 -2 -112
-24 -160 -85 -183 -42 -16 -47 -16 -70 -1 -56 36 -97 3 -52 -42 39 -39 121
-43 180 -8 25 14 48 35 51 46 8 27 19 25 35 -5 33 -61 161 -78 220 -29 23 20
30 34 28 53 -4 36 -34 39 -69 5 -26 -25 -32 -26 -71 -18 -36 8 -46 15 -62 48
-11 23 -21 70 -24 113 -4 68 -2 78 27 132 53 101 37 131 -72 131 -53 0 -71 -4
-87 -20z"/>
<path d="M8525 7247 c-83 -56 -221 -148 -307 -205 -179 -117 -304 -229 -375
-334 -138 -209 -160 -524 -52 -765 37 -83 115 -165 185 -194 l54 -23 -86 -87
c-76 -78 -84 -90 -74 -108 20 -38 49 -24 142 66 l89 87 47 -18 c89 -34 147
-46 227 -46 160 0 289 54 405 170 176 175 262 438 232 708 -20 182 -57 298
-199 637 -78 186 -95 215 -122 214 -9 0 -84 -46 -166 -102z m165 9 c0 -7 36
-105 81 -217 132 -336 164 -464 161 -659 -1 -144 -24 -237 -89 -362 -91 -177
-219 -278 -395 -314 -86 -18 -178 -9 -251 24 l-37 17 45 55 c105 125 232 363
299 557 47 136 87 329 89 428 2 74 0 80 -18 80 -18 0 -22 -12 -37 -104 -36
-221 -99 -408 -211 -626 -57 -110 -146 -247 -204 -312 l-38 -42 -50 11 c-69
15 -162 107 -194 192 -35 94 -51 189 -51 299 0 133 20 222 71 327 36 72 59
101 148 190 86 86 139 126 284 220 97 63 223 147 280 186 99 69 117 77 117 50z"/>
<path d="M1002 5082 c-7 -5 -16 -33 -21 -63 -28 -168 -100 -377 -236 -684
-145 -326 -172 -425 -162 -590 17 -283 199 -521 510 -665 145 -66 290 -88 443
-65 l95 15 82 -73 c101 -89 149 -123 252 -174 97 -49 250 -113 270 -113 19 0
44 38 38 59 -5 20 -14 25 -153 83 -52 22 -130 61 -173 86 -79 47 -197 137
-197 150 0 4 28 22 63 39 85 42 198 132 264 212 64 77 144 237 167 333 21 89
20 158 -3 250 -26 100 -63 172 -152 291 -94 127 -113 128 -138 5 -17 -81 -56
-129 -135 -168 -61 -30 -72 -32 -140 -28 -178 12 -247 128 -172 293 35 76 95
137 178 180 82 43 88 49 88 87 0 30 -41 68 -200 185 -124 92 -519 355 -539
360 -9 2 -22 -1 -29 -5z m473 -383 c72 -53 145 -110 164 -126 l33 -29 -60 -37
c-217 -134 -286 -395 -140 -534 74 -71 211 -101 319 -70 103 30 194 112 225
200 l11 32 48 -75 c161 -247 137 -508 -64 -722 -82 -87 -163 -149 -258 -197
l-63 -31 -45 57 c-168 211 -304 500 -390 825 -48 182 -65 308 -65 476 l0 142
-25 0 c-18 0 -26 -7 -32 -27 -13 -51 -6 -324 11 -428 61 -364 219 -756 412
-1018 15 -20 25 -40 22 -43 -4 -3 -57 -8 -120 -11 -144 -6 -230 11 -357 72
-217 105 -348 242 -419 437 -24 66 -27 86 -26 203 0 118 3 138 31 221 17 50
65 165 106 255 124 275 211 518 251 701 l6 27 148 -101 c81 -56 206 -145 277
-199z"/>
</g>
</svg>
