<?xml version="1.0" standalone="no"?>
<!DOCTYPE svg PUBLIC "-//W3C//DTD SVG 20010904//EN"
 "http://www.w3.org/TR/2001/REC-SVG-20010904/DTD/svg10.dtd">
<svg version="1.0" xmlns="http://www.w3.org/2000/svg"
 width="626.000000pt" height="626.000000pt" viewBox="0 0 626.000000 626.000000"
 preserveAspectRatio="xMidYMid meet">

<g transform="translate(0.000000,626.000000) scale(0.100000,-0.100000)"
fill="#000000" stroke="none">
<path d="M4865 5791 c-11 -5 -111 -69 -222 -142 -111 -74 -322 -208 -469 -299
-147 -91 -307 -195 -355 -232 -139 -107 -264 -262 -326 -406 -23 -53 -31 -62
-48 -58 -11 3 -68 18 -127 35 -154 42 -265 55 -425 48 -137 -5 -206 -15 -293
-43 l-45 -14 -75 73 c-45 42 -111 92 -160 120 -47 27 -142 81 -212 120 -144
81 -331 208 -434 295 -38 32 -125 120 -195 196 -128 141 -194 196 -234 196
-62 0 -100 -74 -139 -273 -51 -258 -56 -444 -17 -673 45 -261 104 -448 200
-638 142 -280 287 -463 437 -552 19 -11 18 -13 -2 -95 -12 -46 -45 -145 -74
-219 -50 -129 -52 -138 -48 -210 4 -62 12 -88 42 -149 43 -85 122 -169 209
-225 60 -38 208 -106 276 -127 22 -7 41 -15 41 -18 -1 -3 -24 -17 -52 -31
-154 -75 -230 -326 -152 -502 16 -36 16 -39 -8 -100 -43 -109 -53 -165 -52
-308 0 -165 24 -273 89 -405 54 -110 120 -192 218 -268 l75 -59 4 -68 c5 -87
38 -139 118 -184 51 -29 62 -31 155 -31 83 0 106 4 135 20 l34 21 30 -34 c79
-89 204 -96 274 -14 l22 27 25 -31 c48 -62 160 -82 235 -44 37 19 80 67 80 89
0 15 4 14 46 -14 143 -97 396 10 513 217 47 83 63 90 216 100 223 14 385 54
572 143 344 163 550 436 682 907 63 226 98 516 81 681 -17 173 -52 287 -167
544 -41 94 -67 168 -75 215 -7 40 -17 76 -22 80 -6 4 -39 -20 -73 -53 -118
-114 -278 -168 -631 -213 -170 -22 -199 -28 -249 -55 -31 -17 -57 -30 -58 -28
-3 4 -58 153 -80 217 -12 36 -25 90 -29 120 l-5 55 90 80 c170 151 344 368
488 610 224 378 251 471 251 873 0 185 4 270 17 351 38 228 17 383 -52 388
-16 1 -39 -2 -50 -6z m64 -68 c16 -58 13 -150 -10 -290 -16 -101 -21 -183 -24
-393 -3 -256 -12 -349 -43 -430 -9 -24 -10 -23 -16 15 -23 138 -57 215 -106
235 -26 11 -34 9 -65 -9 -20 -11 -38 -21 -39 -21 -2 0 -6 14 -10 31 -3 17 -17
54 -31 81 -24 47 -24 52 -10 72 74 101 134 225 135 279 0 32 -37 20 -44 -14
-3 -17 -20 -59 -36 -93 -70 -142 -205 -241 -240 -175 -11 20 -17 20 -117 14
-102 -7 -106 -7 -98 11 5 11 9 35 9 54 l1 35 -135 5 -135 5 305 189 c168 104
384 241 480 306 163 108 193 127 212 129 4 1 12 -16 17 -36z m-3643 -102 c17
-10 64 -56 105 -102 201 -226 312 -324 519 -458 97 -63 103 -72 30 -46 -48 17
-106 20 -115 6 -3 -5 6 -27 20 -47 42 -61 34 -69 -70 -68 -84 0 -96 3 -183 43
-116 54 -122 51 -122 -60 0 -44 -3 -79 -7 -79 -16 1 -85 98 -118 165 -19 39
-45 108 -57 155 -24 94 -32 110 -49 93 -9 -9 -7 -30 4 -81 27 -118 73 -222
133 -301 43 -57 53 -75 43 -82 -22 -14 -78 -22 -113 -16 -18 3 -38 2 -45 -3
-7 -4 -27 -42 -44 -85 -18 -43 -36 -78 -42 -79 -14 -2 -52 197 -64 334 -24
265 57 730 127 730 9 0 31 -8 48 -19z m2730 -539 l122 -4 -11 -28 c-24 -64 20
-87 142 -72 78 9 86 8 100 -10 9 -10 26 -20 39 -21 12 -1 22 -4 21 -7 -1 -5
-70 -68 -246 -223 -188 -166 -207 -220 -88 -257 22 -7 43 -15 48 -19 10 -9
-22 -43 -78 -81 -68 -46 -72 -62 -32 -107 41 -47 49 -66 37 -97 -8 -22 -67
-66 -86 -66 -5 1 -36 37 -69 81 -81 107 -132 156 -146 142 -9 -9 1 -26 38 -70
68 -79 154 -205 192 -281 48 -96 68 -202 75 -397 3 -93 9 -184 15 -201 l9 -32
-102 -4 c-95 -3 -109 -6 -178 -41 -82 -40 -171 -125 -208 -197 -57 -112 -77
-312 -46 -460 8 -36 12 -68 10 -71 -8 -14 -300 -32 -409 -25 -117 7 -143 0
-113 -30 37 -37 397 -26 603 19 55 11 117 21 138 20 98 -3 246 -122 308 -248
32 -65 34 -76 34 -170 -1 -105 -25 -204 -66 -271 -21 -35 -94 -106 -128 -124
l-22 -11 20 38 c39 78 55 154 55 268 1 123 -18 190 -51 183 -10 -2 -16 -11
-15 -19 36 -149 23 -280 -39 -409 -67 -136 -218 -275 -423 -390 l-59 -34 61
73 c73 87 137 212 157 307 20 96 20 134 -3 134 -15 0 -21 -16 -34 -87 -34
-179 -148 -347 -361 -531 -76 -65 -144 -136 -162 -169 -1 -2 -44 25 -96 60
-52 34 -132 85 -179 114 -134 81 -172 126 -243 288 -34 78 -40 103 -44 188 -8
126 -27 127 -31 1 -3 -99 13 -163 73 -287 40 -81 41 -81 -99 -9 -182 93 -296
199 -360 332 -28 59 -31 74 -31 165 0 118 15 168 80 274 49 80 54 94 28 89
-28 -5 -109 -135 -136 -216 -13 -40 -27 -67 -30 -59 -14 38 -18 129 -7 183 25
119 74 188 172 240 l72 37 120 -16 c67 -10 162 -17 211 -17 101 0 254 25 282
45 16 12 16 15 3 28 -13 12 -25 12 -90 0 -123 -24 -332 -19 -473 11 -66 13
-121 27 -124 29 -2 3 5 36 17 74 44 141 36 315 -19 428 -36 72 -107 146 -170
176 -55 26 -177 37 -235 20 -22 -6 -42 -9 -44 -7 -2 2 4 21 13 42 36 87 67
218 86 369 11 88 25 180 31 205 15 63 67 171 128 264 38 59 48 81 40 90 -16
15 -57 -35 -118 -141 -26 -45 -52 -83 -57 -83 -22 0 -55 32 -55 53 0 12 11 42
25 66 37 65 34 75 -37 108 -63 30 -128 77 -128 93 0 5 16 14 36 20 55 18 150
7 212 -24 66 -34 76 -19 36 54 -36 66 -125 154 -286 283 l-128 102 0 88 c0 48
4 87 9 87 5 0 38 -13 73 -30 186 -87 367 -51 308 61 -13 24 -7 24 66 -2 32
-11 93 -28 134 -38 123 -30 272 -115 363 -209 l49 -50 -31 -18 c-30 -18 -41
-47 -21 -59 5 -3 32 6 61 20 97 49 189 67 379 72 152 5 191 2 287 -16 127 -24
230 -54 287 -83 36 -18 40 -18 55 -3 15 15 14 17 -8 34 l-24 18 31 67 c50 106
127 208 234 312 75 71 104 94 116 88 10 -4 72 -9 138 -12z m480 -228 c-8 -33
-17 -102 -21 -154 -9 -131 -27 -188 -83 -262 -99 -132 -95 -122 -103 -236 -9
-118 -37 -191 -104 -270 -34 -39 -41 -72 -16 -72 18 0 92 94 123 157 26 54 32
79 37 167 l7 103 68 92 c88 117 105 164 116 315 5 66 14 139 21 160 l11 40 21
-54 c12 -29 29 -58 38 -63 16 -10 25 -7 85 38 37 27 80 -75 96 -232 l11 -101
-61 -115 c-152 -289 -313 -511 -517 -709 -49 -48 -93 -88 -96 -88 -3 0 -9 48
-12 108 -6 117 -30 209 -79 306 -32 63 -33 61 24 91 15 8 34 25 42 37 32 45
13 138 -34 171 -20 14 -19 16 28 46 120 77 129 137 26 171 -26 9 -49 21 -51
27 -6 18 45 70 226 227 97 84 183 161 191 171 22 27 24 1 6 -71z m-2811 -302
c174 -144 222 -200 151 -172 -44 16 -156 12 -196 -8 -72 -36 -41 -104 75 -163
46 -24 64 -39 61 -49 -3 -8 -13 -36 -23 -62 -22 -59 -11 -95 37 -123 l35 -20
-17 -51 c-9 -28 -24 -107 -33 -175 -21 -157 -20 -152 -45 -139 -45 24 -157
140 -222 232 -138 194 -246 408 -301 598 -24 83 -25 86 -7 105 22 24 66 109
75 147 6 24 10 26 40 21 19 -3 48 0 66 6 18 6 33 10 34 9 1 -2 -3 -36 -8 -76
-14 -96 2 -173 55 -272 38 -71 41 -82 48 -190 12 -162 32 -214 138 -347 61
-78 79 -92 95 -77 9 10 -9 40 -70 117 -89 112 -123 208 -123 352 0 52 -6 73
-50 160 -61 121 -74 203 -46 298 l17 58 47 -40 c26 -22 101 -84 167 -139z
m3624 -1444 c107 -243 145 -396 145 -588 0 -155 -25 -340 -70 -517 -34 -136
-43 -159 -51 -135 -9 25 -41 11 -68 -30 -44 -67 -175 -189 -246 -231 -117 -69
-358 -147 -452 -147 -37 0 -39 1 -26 19 145 199 228 351 282 512 60 179 52
204 -40 133 -60 -46 -122 -77 -204 -102 -75 -23 -195 -38 -233 -28 l-25 6 34
58 c44 75 100 268 85 292 -6 9 -23 9 -71 -3 -170 -42 -213 -36 -258 32 -41 64
-130 145 -194 178 l-51 25 63 29 c183 83 309 231 316 372 2 37 10 66 20 77 34
38 108 58 290 79 214 26 323 48 433 91 79 30 186 94 213 126 11 14 15 7 31
-49 9 -36 44 -125 77 -199z m-1208 166 c33 -9 92 -183 93 -274 2 -125 -107
-255 -286 -340 -95 -45 -229 -90 -269 -90 -26 0 -44 89 -43 220 0 99 4 126 28
195 29 85 84 167 139 209 96 73 238 107 338 80z m-2136 -78 c58 -26 123 -95
155 -163 47 -99 50 -311 6 -415 l-16 -37 -82 35 c-179 76 -289 168 -349 291
-42 83 -46 169 -12 245 26 56 49 66 168 67 64 1 90 -4 130 -23z m2415 -902 c0
-26 -37 -140 -62 -189 -48 -98 -51 -98 -91 -19 -19 38 -37 87 -41 109 -4 22
-10 50 -13 63 -5 21 -2 22 48 23 30 0 74 4 99 8 25 5 48 9 53 10 4 0 7 -2 7
-5z m-146 -336 c20 -51 45 -129 56 -172 50 -200 3 -491 -111 -682 -50 -84
-148 -184 -180 -184 -22 0 -31 -11 -63 -75 -20 -41 -41 -75 -45 -75 -4 0 -14
12 -22 27 -31 58 -160 146 -273 187 -18 6 -18 8 3 30 16 17 30 57 46 135 15
68 36 133 55 169 41 77 135 173 210 214 58 32 77 58 43 58 -68 0 -240 -145
-296 -248 -16 -29 -42 -105 -58 -170 -25 -100 -35 -122 -64 -151 -19 -19 -36
-33 -39 -30 -6 6 20 129 45 208 20 65 15 89 -13 78 -17 -6 -63 -152 -79 -249
l-11 -66 -46 25 c-65 34 -164 30 -242 -10 -29 -15 -54 -26 -55 -25 -1 2 -7 17
-12 33 -9 26 -6 36 17 70 61 88 170 179 295 245 197 104 291 167 388 259 58
55 114 98 151 116 88 42 175 134 209 219 15 37 30 88 34 112 3 24 9 44 13 44
4 0 23 -42 44 -92z m530 20 c-42 -116 -116 -253 -208 -388 -47 -68 -86 -132
-86 -142 0 -65 223 -43 436 42 104 41 204 104 288 182 41 37 66 54 63 43 -73
-234 -97 -279 -201 -393 -67 -71 -187 -165 -278 -216 -155 -86 -381 -153 -552
-163 l-109 -6 50 64 c134 170 199 389 191 634 -4 105 -10 145 -31 210 -15 44
-27 85 -27 90 0 6 33 9 86 7 110 -4 208 17 310 68 44 21 82 39 86 39 4 1 -4
-32 -18 -71z m-2703 -275 c48 -83 132 -167 239 -238 82 -55 245 -136 322 -161
12 -4 45 -23 73 -44 27 -20 108 -72 178 -115 123 -76 144 -95 161 -152 7 -22
7 -22 -31 -6 -69 30 -195 21 -294 -21 -13 -6 -19 3 -29 41 -28 104 -119 272
-147 273 -26 0 -22 -21 12 -75 31 -48 85 -171 85 -192 0 -4 -13 6 -29 21 -15
15 -41 58 -56 97 -62 159 -194 282 -352 329 -50 15 -82 8 -63 -15 7 -8 20 -15
29 -15 33 0 143 -61 191 -106 71 -66 115 -130 151 -216 16 -40 41 -84 54 -98
32 -33 31 -40 -1 -40 -40 0 -90 -28 -151 -84 -51 -47 -55 -48 -39 -19 9 18 16
39 16 48 0 24 -35 17 -50 -10 -7 -14 -17 -25 -21 -25 -14 0 -125 97 -177 155
-63 71 -125 194 -153 300 -40 154 -35 383 11 500 l12 30 14 -54 c8 -30 28 -79
45 -108z m1292 -757 c18 -7 43 -25 55 -39 l24 -25 -17 -82 c-14 -71 -40 -159
-61 -210 -4 -9 -11 2 -18 30 -7 27 -18 45 -26 45 -12 0 -14 -13 -12 -64 4 -70
-3 -81 -50 -81 -27 0 -28 2 -28 53 0 58 -11 83 -32 74 -11 -4 -14 -18 -10 -61
2 -31 0 -56 -5 -56 -17 0 -55 32 -73 62 -17 28 -17 33 -2 72 9 26 16 77 17
139 1 53 6 102 11 107 20 20 109 49 152 50 23 0 57 -6 75 -14z m317 -41 c64
-32 180 -144 180 -173 0 -50 -154 -142 -249 -150 l-56 -5 20 24 c11 13 31 36
44 52 20 21 22 30 13 39 -17 17 -38 3 -81 -53 -39 -52 -50 -56 -80 -32 -23 18
-23 20 -6 58 9 22 28 52 42 68 21 21 24 30 15 39 -10 10 -17 10 -33 0 -20 -13
-20 -12 -13 35 9 63 17 83 48 120 26 31 28 32 65 18 20 -7 62 -25 91 -40z
m-675 21 c73 -34 78 -43 73 -134 -6 -82 -34 -172 -70 -217 -25 -32 -31 -27
-38 33 -3 33 -10 47 -20 47 -12 0 -15 -14 -15 -62 0 -57 -2 -63 -20 -63 -34 0
-45 15 -54 69 -9 59 -14 66 -36 57 -12 -4 -15 -14 -10 -43 l6 -38 -20 25 c-38
46 -97 289 -75 310 20 19 103 39 164 39 48 1 78 -5 115 -23z m-346 -13 c5 -10
12 -45 16 -78 6 -49 5 -58 -6 -47 -19 18 -39 15 -39 -7 0 -10 16 -30 35 -45
44 -34 62 -91 38 -118 -25 -27 -45 -21 -76 23 -24 35 -79 79 -100 79 -4 0 -10
-6 -13 -14 -3 -9 13 -31 40 -56 25 -24 46 -46 46 -51 0 -12 -52 -11 -105 2
-51 13 -117 66 -134 108 -10 24 -10 34 3 59 20 39 111 121 161 143 53 24 121
25 134 2z"/>
<path d="M3334 3606 c-56 -26 -78 -43 -103 -80 -44 -64 -62 -120 -64 -197 -2
-103 43 -159 128 -159 42 0 86 42 110 105 17 44 17 127 -1 250 -5 33 -2 44 15
59 25 23 27 42 5 50 -19 7 -6 11 -90 -28z m-26 -128 c16 -16 -3 -48 -29 -48
-22 0 -34 22 -25 45 6 18 37 20 54 3z"/>
<path d="M2377 3603 c-13 -12 -7 -34 18 -71 22 -33 25 -47 25 -131 0 -51 5
-111 12 -133 23 -78 105 -112 162 -67 71 56 76 220 9 299 -25 31 -90 70 -115
70 -7 0 -30 9 -51 20 -40 21 -50 24 -60 13z m153 -128 c6 -8 10 -22 8 -32 -4
-24 -47 -24 -62 0 -9 15 -7 21 8 33 25 18 31 18 46 -1z"/>
<path d="M2857 3153 c-13 -12 -7 -40 13 -66 35 -45 22 -175 -20 -197 -25 -14
-63 -13 -78 2 -9 9 -15 9 -24 0 -20 -20 22 -54 66 -54 38 0 83 23 92 47 4 11
11 8 27 -11 43 -50 157 -38 157 16 0 24 -26 26 -51 4 -14 -12 -24 -14 -46 -7
-52 18 -69 120 -32 197 31 62 22 76 -44 76 -30 0 -57 -3 -60 -7z"/>
<path d="M5555 4722 c-55 -37 -145 -96 -200 -132 -177 -115 -277 -235 -306
-371 -18 -81 -6 -252 21 -323 27 -70 92 -140 140 -151 l32 -7 -57 -58 c-39
-39 -56 -64 -52 -74 10 -26 26 -19 90 42 l62 59 50 -20 c36 -15 74 -20 132
-21 74 0 88 4 157 37 87 43 136 94 190 196 74 141 85 313 32 492 -40 137 -155
399 -174 399 -10 0 -62 -30 -117 -68z m166 -137 c123 -312 136 -468 54 -642
-69 -147 -182 -227 -320 -227 -38 1 -85 7 -102 15 l-33 14 36 45 c53 66 111
168 156 271 68 159 116 414 78 414 -11 0 -17 -16 -22 -56 -24 -191 -132 -447
-253 -600 -35 -44 -44 -50 -68 -45 -168 33 -226 384 -96 579 17 27 59 73 93
103 63 56 394 283 409 280 5 -1 36 -69 68 -151z"/>
<path d="M654 3312 c-6 -4 -14 -29 -17 -56 -10 -73 -76 -263 -147 -420 -86
-193 -101 -239 -107 -337 -13 -206 96 -374 310 -479 115 -56 230 -74 331 -50
39 8 41 8 105 -52 48 -43 97 -75 178 -115 131 -63 168 -71 168 -34 0 22 -12
30 -90 64 -86 37 -210 111 -234 141 -9 11 -2 19 41 44 175 98 287 284 276 455
-6 89 -31 147 -104 245 -62 82 -79 84 -91 8 -14 -88 -116 -149 -213 -126 -86
21 -119 88 -86 174 19 50 89 120 142 142 19 8 34 18 34 23 0 5 3 16 6 25 6 17
-132 123 -344 265 -136 91 -142 94 -158 83z m166 -145 c110 -77 270 -196 270
-202 0 -2 -20 -15 -44 -29 -112 -65 -167 -216 -113 -310 42 -75 169 -110 260
-73 48 21 98 67 114 106 15 34 16 35 30 16 8 -11 29 -47 46 -80 29 -55 32 -68
32 -155 0 -88 -3 -101 -33 -162 -37 -76 -136 -175 -221 -222 -51 -27 -53 -27
-72 -10 -70 63 -179 271 -239 454 -51 153 -73 271 -74 400 -2 83 -5 105 -16
105 -37 0 -37 -201 1 -368 44 -201 133 -419 223 -547 32 -45 42 -67 33 -72
-26 -17 -171 -8 -238 15 -186 64 -316 202 -351 375 -18 93 3 183 92 384 75
169 160 406 160 446 0 27 -9 32 140 -71z"/>
</g>
</svg>
